<?xml version="1.0" encoding="utf-8"?>
<!-- Generator: Adobe Illustrator 26.3.1, SVG Export Plug-In . SVG Version: 6.00 Build 0)  -->
<svg version="1.1" id="レイヤー_1" xmlns="http://www.w3.org/2000/svg" xmlns:xlink="http://www.w3.org/1999/xlink" x="0px"
	 y="0px" viewBox="0 0 494 102" style="enable-background:new 0 0 494 102;" xml:space="preserve" fill="rgb(55, 65, 81)">
<g>
	<path d="M241.13,78.18c0,0.89-0.04,1.65-0.11,2.26s-0.19,1.12-0.33,1.52c-0.15,0.4-0.33,0.69-0.56,0.87
		c-0.22,0.18-0.48,0.27-0.78,0.27h-26.49c-0.98,0-1.81-0.29-2.48-0.87s-1-1.53-1-2.84V26.9c0-0.3,0.1-0.57,0.29-0.8
		c0.19-0.24,0.51-0.43,0.96-0.58c0.45-0.15,1.05-0.27,1.81-0.36s1.7-0.13,2.84-0.13c1.16,0,2.11,0.04,2.86,0.13
		c0.74,0.09,1.34,0.21,1.79,0.36s0.77,0.34,0.96,0.58s0.29,0.51,0.29,0.8v46.51h18.18c0.3,0,0.56,0.08,0.78,0.25
		c0.22,0.16,0.41,0.43,0.56,0.8s0.26,0.86,0.33,1.47C241.1,76.54,241.13,77.29,241.13,78.18z"/>
	<path d="M264.43,81.49c0,0.3-0.1,0.57-0.29,0.8c-0.19,0.24-0.51,0.43-0.96,0.58c-0.45,0.15-1.04,0.27-1.79,0.36
		c-0.74,0.09-1.7,0.14-2.86,0.14c-1.13,0-2.08-0.05-2.84-0.14c-0.76-0.09-1.36-0.21-1.81-0.36s-0.77-0.34-0.96-0.58
		s-0.29-0.51-0.29-0.8V26.9c0-0.3,0.1-0.57,0.29-0.8c0.19-0.24,0.52-0.43,0.98-0.58c0.46-0.15,1.06-0.27,1.81-0.36
		c0.74-0.09,1.68-0.13,2.81-0.13c1.16,0,2.11,0.04,2.86,0.13c0.74,0.09,1.34,0.21,1.79,0.36s0.77,0.34,0.96,0.58s0.29,0.51,0.29,0.8
		L264.43,81.49L264.43,81.49z"/>
	<path d="M315.86,65.76c0,3.04-0.57,5.7-1.7,8c-1.13,2.29-2.67,4.21-4.6,5.74c-1.94,1.53-4.2,2.69-6.79,3.46
		c-2.59,0.78-5.36,1.16-8.31,1.16c-2,0-3.85-0.16-5.56-0.49s-3.22-0.72-4.54-1.18c-1.31-0.46-2.41-0.95-3.28-1.45
		c-0.88-0.5-1.51-0.95-1.9-1.34c-0.39-0.39-0.66-0.95-0.83-1.67c-0.16-0.73-0.25-1.78-0.25-3.15c0-0.92,0.03-1.7,0.09-2.32
		c0.06-0.63,0.16-1.13,0.29-1.52c0.14-0.39,0.31-0.66,0.54-0.82c0.22-0.16,0.48-0.25,0.78-0.25c0.42,0,1,0.25,1.77,0.74
		c0.76,0.49,1.73,1.03,2.93,1.63c1.19,0.6,2.61,1.14,4.27,1.63c1.65,0.49,3.57,0.74,5.74,0.74c1.43,0,2.71-0.17,3.84-0.51
		s2.09-0.83,2.88-1.45c0.79-0.63,1.39-1.4,1.81-2.32c0.42-0.92,0.63-1.95,0.63-3.08c0-1.31-0.36-2.44-1.07-3.37
		c-0.71-0.94-1.65-1.77-2.79-2.5c-1.15-0.73-2.45-1.42-3.91-2.06c-1.46-0.64-2.96-1.32-4.51-2.03c-1.55-0.71-3.05-1.53-4.51-2.43
		c-1.46-0.91-2.76-2-3.91-3.26c-1.15-1.27-2.08-2.76-2.79-4.49c-0.71-1.73-1.07-3.8-1.07-6.21c0-2.77,0.51-5.21,1.54-7.3
		c1.03-2.1,2.41-3.84,4.16-5.23c1.74-1.38,3.8-2.42,6.17-3.1c2.37-0.69,4.88-1.03,7.53-1.03c1.37,0,2.74,0.11,4.11,0.31
		c1.37,0.21,2.65,0.49,3.84,0.85s2.25,0.76,3.17,1.21c0.92,0.45,1.53,0.82,1.83,1.12s0.5,0.55,0.6,0.76
		c0.1,0.21,0.19,0.48,0.27,0.83c0.07,0.34,0.13,0.77,0.16,1.29c0.03,0.52,0.04,1.17,0.04,1.94c0,0.86-0.02,1.59-0.07,2.19
		c-0.04,0.6-0.12,1.09-0.22,1.47c-0.1,0.39-0.25,0.67-0.45,0.85c-0.19,0.18-0.46,0.27-0.78,0.27c-0.33,0-0.85-0.21-1.56-0.63
		s-1.59-0.87-2.64-1.36c-1.04-0.49-2.25-0.94-3.62-1.34s-2.87-0.6-4.51-0.6c-1.28,0-2.4,0.16-3.35,0.47s-1.75,0.74-2.39,1.29
		s-1.12,1.21-1.43,1.99s-0.47,1.59-0.47,2.46c0,1.28,0.35,2.39,1.05,3.33c0.7,0.94,1.64,1.77,2.82,2.5s2.51,1.42,4,2.06
		c1.49,0.64,3.01,1.32,4.56,2.03s3.07,1.53,4.56,2.44s2.81,1.99,3.98,3.26c1.16,1.27,2.1,2.75,2.81,4.47
		C315.51,61.42,315.86,63.44,315.86,65.76z"/>
	<path d="M367.89,30.11c0,0.86-0.04,1.6-0.11,2.21c-0.07,0.61-0.19,1.1-0.33,1.48c-0.15,0.37-0.33,0.65-0.56,0.82
		c-0.22,0.18-0.47,0.27-0.74,0.27h-14.47v46.6c0,0.3-0.1,0.57-0.29,0.8c-0.2,0.24-0.52,0.43-0.96,0.58
		c-0.45,0.15-1.05,0.27-1.81,0.36s-1.71,0.14-2.84,0.14s-2.08-0.05-2.84-0.14s-1.36-0.21-1.81-0.36s-0.77-0.34-0.96-0.58
		s-0.29-0.51-0.29-0.8v-46.6H325.4c-0.3,0-0.55-0.09-0.76-0.27c-0.21-0.18-0.39-0.45-0.54-0.82s-0.26-0.86-0.33-1.48
		c-0.07-0.61-0.11-1.35-0.11-2.21c0-0.89,0.04-1.65,0.11-2.28c0.07-0.63,0.18-1.12,0.33-1.5c0.15-0.37,0.33-0.64,0.54-0.8
		c0.21-0.16,0.46-0.25,0.76-0.25h40.74c0.27,0,0.52,0.08,0.74,0.25c0.22,0.16,0.41,0.43,0.56,0.8s0.26,0.87,0.33,1.5
		S367.89,29.22,367.89,30.11z"/>
	<path d="M413.56,78.49c0,0.86-0.04,1.59-0.11,2.17c-0.07,0.58-0.18,1.05-0.33,1.41s-0.33,0.62-0.56,0.78
		c-0.22,0.16-0.47,0.25-0.74,0.25h-29.04c-0.98,0-1.81-0.29-2.48-0.87s-1-1.53-1-2.84V29c0-1.31,0.33-2.25,1-2.84
		c0.67-0.58,1.5-0.87,2.48-0.87h28.86c0.27,0,0.5,0.07,0.71,0.22s0.39,0.41,0.54,0.78s0.26,0.85,0.33,1.43
		c0.07,0.58,0.11,1.32,0.11,2.21c0,0.83-0.04,1.54-0.11,2.12c-0.07,0.58-0.19,1.05-0.33,1.41c-0.15,0.36-0.33,0.62-0.54,0.78
		c-0.21,0.16-0.45,0.25-0.71,0.25H391v14.12h17.47c0.27,0,0.51,0.08,0.74,0.25c0.22,0.16,0.41,0.42,0.56,0.76s0.26,0.8,0.33,1.38
		c0.07,0.58,0.11,1.29,0.11,2.12c0,0.86-0.04,1.58-0.11,2.14c-0.07,0.57-0.19,1.02-0.33,1.36c-0.15,0.34-0.34,0.59-0.56,0.74
		s-0.47,0.22-0.74,0.22H391v16.31h20.82c0.27,0,0.51,0.08,0.74,0.25c0.22,0.16,0.41,0.42,0.56,0.78s0.26,0.83,0.33,1.41
		C413.52,76.91,413.56,77.63,413.56,78.49z"/>
	<path d="M476.17,78.99c0,0.69-0.12,1.29-0.36,1.83s-0.56,0.98-0.96,1.34s-0.88,0.62-1.43,0.78s-1.11,0.25-1.67,0.25h-5
		c-1.04,0-1.94-0.1-2.7-0.31s-1.46-0.59-2.1-1.14s-1.26-1.29-1.85-2.23c-0.6-0.94-1.27-2.15-2.01-3.64L443.7,48.84
		c-0.84-1.61-1.68-3.34-2.55-5.2c-0.86-1.86-1.64-3.67-2.32-5.43h-0.09c0.12,2.14,0.21,4.28,0.27,6.41s0.09,4.33,0.09,6.59v30.24
		c0,0.3-0.08,0.57-0.25,0.8c-0.16,0.24-0.45,0.44-0.85,0.6s-0.95,0.29-1.63,0.38c-0.69,0.09-1.56,0.14-2.64,0.14
		c-1.04,0-1.91-0.05-2.59-0.14c-0.69-0.09-1.22-0.22-1.61-0.38c-0.39-0.16-0.65-0.37-0.8-0.6c-0.15-0.24-0.22-0.5-0.22-0.8V29.49
		c0-1.4,0.41-2.45,1.23-3.15s1.82-1.05,3.02-1.05h6.3c1.13,0,2.08,0.1,2.86,0.29c0.77,0.19,1.47,0.51,2.08,0.96
		c0.61,0.45,1.18,1.06,1.72,1.85s1.09,1.76,1.65,2.93l11.26,21.13c0.65,1.28,1.3,2.54,1.94,3.78c0.64,1.23,1.26,2.47,1.85,3.71
		s1.18,2.45,1.74,3.64c0.57,1.19,1.12,2.38,1.65,3.57h0.05c-0.09-2.08-0.16-4.26-0.2-6.52c-0.05-2.26-0.07-4.42-0.07-6.48V27.03
		c0-0.3,0.09-0.57,0.27-0.8c0.18-0.24,0.48-0.45,0.89-0.63c0.42-0.18,0.97-0.31,1.65-0.38c0.69-0.07,1.56-0.11,2.64-0.11
		c1.01,0,1.86,0.04,2.55,0.11s1.21,0.2,1.59,0.38c0.37,0.18,0.63,0.39,0.78,0.63s0.22,0.51,0.22,0.8L476.17,78.99L476.17,78.99z"/>
</g>
<g>
	<path d="M69.07,49.33c-12.49-18.12-40.22-37.6-41.39-38.42c-0.05-0.04-0.11-0.06-0.17-0.09c-0.05-0.03-0.11-0.06-0.16-0.09
		c-0.16-0.08-0.32-0.14-0.49-0.18c-0.03-0.01-0.05-0.02-0.08-0.03c-0.2-0.04-0.4-0.06-0.6-0.06c-0.05,0-0.1,0.01-0.16,0.01
		c-0.16,0.01-0.32,0.04-0.47,0.08c-0.03,0.01-0.07,0.01-0.1,0.02c-0.02,0.01-0.04,0.02-0.06,0.03c-0.19,0.07-0.38,0.15-0.56,0.26
		c-0.02,0.01-0.04,0.03-0.05,0.04c-0.15,0.1-0.28,0.22-0.41,0.35c-0.04,0.05-0.08,0.1-0.13,0.15c-0.04,0.05-0.09,0.09-0.13,0.15
		c-0.05,0.07-0.08,0.14-0.12,0.22c-0.03,0.05-0.06,0.1-0.09,0.16c-0.09,0.19-0.16,0.38-0.2,0.58c0,0,0,0.01,0,0.01
		c-0.14,0.72-3.39,17.35-1.5,34.27c-2.53-2.01-4.43-4.28-4.45-4.31c-0.73-0.89-1.96-1.18-3.01-0.71c-1.05,0.47-1.66,1.57-1.5,2.71
		c0.16,1.06,1.64,10.48,5.82,15.29c0.86,0.99,1.89,1.89,2.99,2.71c-3.17-1.32-4.84-3.12-4.85-3.12c-0.83-0.94-2.22-1.13-3.28-0.47
		c-1.06,0.67-1.48,2.01-0.99,3.16c0.17,0.41,3.94,9.17,10.81,13.53c-1.1-0.36-2.05-0.71-2.61-0.94c-1.08-0.44-2.32-0.1-3.02,0.84
		s-0.67,2.23,0.06,3.13c0.27,0.33,6.62,8.1,15.46,10.99c5.27,1.71,8.09,1.82,8.67,1.82c0.04,0,0.07,0,0.09,0
		c1.4-0.03,2.5-1.19,2.48-2.59c-0.02-1.4-1.17-2.53-2.57-2.53c0,0,0,0,0,0c-0.02,0-2.33-0.02-7.09-1.56
		c-2.03-0.66-3.92-1.66-5.61-2.76c0.29,0.01,0.58,0,0.85-0.01c4.94-0.27,8.31-1.87,8.45-1.94c1.06-0.51,1.62-1.68,1.37-2.84
		c-0.24-1.15-1.26-1.99-2.44-2.03c-0.03,0-3.05-0.13-9.75-3.04c-1.99-0.87-3.75-2.35-5.23-3.98c5.48,1.35,10.64-0.5,10.87-0.58
		c1.02-0.37,1.69-1.35,1.68-2.44s-0.72-2.05-1.75-2.39c-0.07-0.02-7.44-2.52-10.74-6.31c-0.98-1.13-1.81-2.79-2.49-4.55
		c0.39,0.27,0.8,0.54,1.21,0.79c4.74,2.88,11.14,1.33,11.86,1.14c1.36-0.36,2.18-1.75,1.83-3.12c-0.35-1.37-1.75-2.19-3.11-1.84
		c-0.87,0.22-2.86,0.54-4.82,0.35c0.12-0.36,0.17-0.75,0.12-1.15c-1.53-11.29-0.45-23,0.42-29.47c5.61,6.29,17.11,20.51,27.98,42.14
		c5.26,10.47,5.35,22.9,5.35,23.03c0,1.41,1.15,2.55,2.56,2.55c0,0,0,0,0,0c1.41,0,2.56-1.15,2.56-2.56
		c0-0.56-0.08-13.74-5.89-25.32c-5.93-11.8-11.99-21.39-17.24-28.78c7.8,6.7,16.29,14.88,21.62,22.61
		c11.77,17.08,13.82,31.18,13.86,31.45c0.17,1.29,1.27,2.23,2.53,2.23c0.11,0,0.22-0.01,0.34-0.02c1.4-0.18,2.39-1.47,2.2-2.87
		C83.71,82.39,81.64,67.58,69.07,49.33z"/>
	<path d="M175.19,62.02c0.49-1.15,0.07-2.47-0.98-3.14c-1.05-0.67-2.44-0.48-3.28,0.43c-0.02,0.02-1.69,1.82-4.86,3.14
		c1.1-0.81,2.14-1.72,2.99-2.71c4.18-4.81,5.67-14.23,5.82-15.29c0.17-1.14-0.44-2.24-1.49-2.71c-1.05-0.47-2.28-0.18-3.01,0.71
		c-0.02,0.03-1.9,2.28-4.42,4.28c1.88-16.91-1.36-33.5-1.51-34.23c-0.02-0.08-0.05-0.15-0.08-0.22c-0.03-0.11-0.06-0.22-0.11-0.33
		c-0.04-0.1-0.1-0.19-0.16-0.28c-0.03-0.05-0.05-0.09-0.08-0.14c-0.02-0.04-0.06-0.06-0.08-0.1c-0.06-0.08-0.13-0.16-0.2-0.23
		c-0.09-0.09-0.18-0.16-0.27-0.23c-0.06-0.05-0.11-0.1-0.18-0.14c-0.16-0.1-0.34-0.18-0.51-0.24c-0.02-0.01-0.05-0.03-0.07-0.03
		c-0.04-0.01-0.09-0.01-0.13-0.02c-0.14-0.04-0.29-0.06-0.44-0.08c-0.06,0-0.11-0.01-0.17-0.01c-0.2,0-0.41,0.01-0.61,0.06
		c0,0-0.01,0-0.01,0c-0.2,0.05-0.39,0.12-0.57,0.22c-0.04,0.02-0.07,0.04-0.1,0.06c-0.07,0.04-0.14,0.07-0.21,0.12
		c-1.17,0.82-28.89,20.29-41.39,38.42c-12.58,18.25-14.64,33.07-14.72,33.69c-0.18,1.4,0.8,2.68,2.2,2.87
		c0.11,0.02,0.23,0.02,0.34,0.02c1.26,0,2.36-0.93,2.53-2.22c0.02-0.14,2.04-14.3,13.86-31.45c5.34-7.74,13.84-15.92,21.64-22.63
		c-5.26,7.39-11.32,16.99-17.25,28.79c-5.81,11.58-5.89,24.76-5.89,25.32c0,1.41,1.14,2.56,2.56,2.56c0,0,0,0,0,0
		c1.41,0,2.56-1.14,2.56-2.56c0-0.12,0.07-12.52,5.35-23.02c10.87-21.63,22.37-35.85,27.98-42.14c0.87,6.46,1.95,18.18,0.42,29.47
		c-0.05,0.39-0.01,0.77,0.11,1.12c-1.97,0.19-3.96-0.12-4.84-0.35c-1.36-0.35-2.76,0.46-3.12,1.83c-0.36,1.37,0.46,2.77,1.83,3.12
		c0.72,0.19,7.12,1.74,11.86-1.14c0.41-0.25,0.82-0.51,1.21-0.79c-0.68,1.77-1.51,3.42-2.49,4.55c-3.3,3.79-10.67,6.29-10.74,6.31
		c-1.03,0.34-1.73,1.3-1.75,2.39c-0.02,1.09,0.66,2.07,1.68,2.44c0.23,0.08,5.4,1.94,10.87,0.58c-1.48,1.63-3.23,3.11-5.23,3.98
		c-6.7,2.91-9.72,3.04-9.71,3.04c-1.19,0-2.23,0.83-2.5,1.99c-0.27,1.17,0.31,2.36,1.39,2.88c0.14,0.07,3.51,1.66,8.45,1.94
		c0.28,0.02,0.56,0.02,0.85,0.01c-1.68,1.1-3.58,2.1-5.61,2.76c-4.75,1.55-7.06,1.56-7.06,1.56c-1.44,0.01-2.59,1.08-2.62,2.5
		c-0.03,1.41,1.08,2.58,2.5,2.62c0.02,0,0.05,0,0.09,0c0.59,0,3.41-0.1,8.67-1.82c8.84-2.88,15.19-10.66,15.46-10.99
		c0.73-0.91,0.76-2.2,0.06-3.14c-0.7-0.94-1.94-1.28-3.02-0.84c-0.56,0.23-1.51,0.59-2.61,0.94
		C171.24,71.19,175.01,62.43,175.19,62.02z"/>
</g>
</svg>
